<mxfile host="app.diagrams.net">
  <diagram name="H2H Architecture">
    <mxGraphModel dx="784" dy="496" grid="1" gridSize="10" guides="1" tooltips="1" connect="1" arrows="1" fold="1" page="1" pageScale="1" pageWidth="827" pageHeight="1169" math="0" shadow="0">
      <root>
        <mxCell id="0" />
        <mxCell id="1" parent="0" />
        <mxCell id="2" value="Corporate IB" style="rounded=1;whiteSpace=wrap;html=1;fillColor=#d5e8d4;strokeColor=#82b366;" vertex="1" parent="1">
          <mxGeometry x="100" y="50" width="100" height="50" as="geometry" />
        </mxCell>
        <mxCell id="3" value="H2H APIs" style="rounded=1;whiteSpace=wrap;html=1;fillColor=#dae8fc;strokeColor=#6c8ebf;" vertex="1" parent="1">
          <mxGeometry x="250" y="50" width="100" height="50" as="geometry" />
        </mxCell>
        <mxCell id="4" value="Corporate ERP" style="rounded=1;whiteSpace=wrap;html=1;fillColor=#ffe6cc;strokeColor=#d79b00;" vertex="1" parent="1">
          <mxGeometry x="100" y="150" width="100" height="50" as="geometry" />
        </mxCell>
        <mxCell id="5" value="Bank Backend Systems" style="rounded=1;whiteSpace=wrap;html=1;fillColor=#f8cecc;strokeColor=#b85450;" vertex="1" parent="1">
          <mxGeometry x="400" y="50" width="150" height="50" as="geometry" />
        </mxCell>
        <mxCell id="6" value="File Management &amp; Payments" style="rounded=1;whiteSpace=wrap;html=1;fillColor=#f5f5f5;strokeColor=#888888;" vertex="1" parent="1">
          <mxGeometry x="400" y="150" width="150" height="50" as="geometry" />
        </mxCell>
        <mxCell id="7" edge="1" source="2" target="3" style="edgeStyle=orthogonalEdgeStyle;rounded=1;strokeColor=#6c8ebf;">
          <mxGeometry relative="1" as="geometry" />
        </mxCell>
        <mxCell id="8" edge="1" source="3" target="5" style="edgeStyle=orthogonalEdgeStyle;rounded=1;strokeColor=#b85450;">
          <mxGeometry relative="1" as="geometry" />
        </mxCell>
        <mxCell id="9" edge="1" source="3" target="6" style="edgeStyle=orthogonalEdgeStyle;rounded=1;strokeColor=#888888;">
          <mxGeometry relative="1" as="geometry" />
        </mxCell>
        <mxCell id="10" edge="1" source="2" target="3" style="edgeStyle=orthogonalEdgeStyle;rounded=1;strokeColor=#82b366;">
          <mxGeometry relative="1" as="geometry" />
        </mxCell>
        <mxCell id="11" edge="1" source="4" target="3" style="edgeStyle=orthogonalEdgeStyle;rounded=1;strokeColor=#d79b00;">
          <mxGeometry relative="1" as="geometry" />
        </mxCell>
      </root>
    </mxGraphModel>
  </diagram>
</mxfile>
